<svg id="icon-large_blockquote" data-name="icon-large blockquote" xmlns="http://www.w3.org/2000/svg" xmlns:xlink="http://www.w3.org/1999/xlink" width="55" height="58" viewBox="0 0 55 58">
  <defs>
    <clipPath id="clip-path">
      <rect id="Rectangle_2095" data-name="Rectangle 2095" width="55" height="58" fill="#00b1e1"/>
    </clipPath>
  </defs>
  <g id="LARGE_QUOTE" data-name="LARGE QUOTE" clip-path="url(#clip-path)">
    <path id="Intersection_2" data-name="Intersection 2" d="M41.7,87.05a45.188,45.188,0,0,1-.3-15.55A46.012,46.012,0,0,1,56.5,44.1l5.4,3.4a2.552,2.552,0,0,1,1.35,2.45,3.591,3.591,0,0,1-.95,2.25A30.053,30.053,0,0,0,57.85,60a35.159,35.159,0,0,0-2.35,9.85A39.934,39.934,0,0,0,56,80.7a31.944,31.944,0,0,0,4.1,10.8,4.407,4.407,0,0,1,.75,3.749A4.044,4.044,0,0,1,58.4,97.7l-11,4.3a46.219,46.219,0,0,1-5.7-14.95Zm-30.4,0A45.166,45.166,0,0,1,11,71.5,46.012,46.012,0,0,1,26.1,44.1l5.4,3.4a2.552,2.552,0,0,1,1.35,2.45,3.591,3.591,0,0,1-.95,2.25A30.078,30.078,0,0,0,27.45,60a35.19,35.19,0,0,0-2.35,9.85,40.006,40.006,0,0,0,.5,10.85,31.963,31.963,0,0,0,4.1,10.8,4.407,4.407,0,0,1,.75,3.749A4.041,4.041,0,0,1,28,97.7L17,102a46.217,46.217,0,0,1-5.7-14.95Z" transform="translate(-10.264 -44.1)" fill="#00b1e1"/>
  </g>
</svg>
