<?xml version="1.0" encoding="UTF-8"?>
<svg id="Layer_1" data-name="Layer 1" xmlns="http://www.w3.org/2000/svg" viewBox="0 0 462.91 217.31">
  <defs>
    <style>
      .cls-1 {
        fill: #005687;
      }

      .cls-2 {
        fill: #00b1e1;
      }

      .cls-3 {
        fill: #0084ad;
      }

      .cls-4 {
        fill: #a4daf6;
      }
    </style>
  </defs>
  <path class="cls-1" d="m164.95,63v17.41c0,1.62.38,2.87,1.13,3.75.75.88,1.89,1.32,3.43,1.32s2.69-.45,3.47-1.34c.78-.89,1.17-2.14,1.17-3.73v-17.41h8.34v17.41c0,2.75-.58,5.1-1.75,7.05-1.16,1.94-2.75,3.41-4.75,4.38-2,.98-4.22,1.47-6.66,1.47s-4.62-.49-6.53-1.47c-1.92-.98-3.42-2.43-4.51-4.36-1.09-1.93-1.64-4.29-1.64-7.07v-17.41h8.3Z"/>
  <path class="cls-1" d="m208.42,71.66c1.62,1.83,2.43,4.31,2.43,7.43v13.92h-8.34v-12.81c0-1.36-.36-2.43-1.06-3.21-.71-.78-1.66-1.17-2.85-1.17s-2.23.39-2.94,1.17c-.71.78-1.06,1.85-1.06,3.21v12.81h-8.34v-23.88h8.34v3.41c.74-1.08,1.73-1.95,2.98-2.62,1.25-.67,2.68-1,4.3-1,2.75,0,4.94.92,6.56,2.75Z"/>
  <path class="cls-1" d="m214.4,65.7c-.89-.81-1.34-1.82-1.34-3.04s.45-2.28,1.34-3.11c.89-.82,2.08-1.23,3.55-1.23s2.62.41,3.51,1.23c.89.82,1.34,1.86,1.34,3.11s-.45,2.24-1.34,3.04c-.89.81-2.06,1.21-3.51,1.21s-2.66-.4-3.55-1.21Zm7.68,3.43v23.88h-8.34v-23.88h8.34Z"/>
  <path class="cls-1" d="m238.3,85.14l4.47-16.01h8.9l-8.22,23.88h-10.39l-8.22-23.88h8.9l4.56,16.01Z"/>
  <path class="cls-1" d="m276.32,82.75h-15.79c.09,1.31.45,2.28,1.09,2.92.64.64,1.45.96,2.45.96,1.39,0,2.38-.62,2.98-1.87h8.9c-.37,1.65-1.09,3.12-2.15,4.41-1.06,1.29-2.41,2.31-4.02,3.04-1.62.74-3.41,1.11-5.36,1.11-2.36,0-4.45-.5-6.28-1.49-1.83-.99-3.26-2.41-4.3-4.26-1.04-1.84-1.55-4.02-1.55-6.51s.51-4.66,1.53-6.49c1.02-1.83,2.45-3.24,4.28-4.24,1.83-.99,3.94-1.49,6.32-1.49s4.44.48,6.26,1.45c1.82.97,3.24,2.35,4.26,4.15,1.02,1.8,1.53,3.92,1.53,6.36,0,.65-.04,1.31-.13,1.96Zm-8.39-4.04c0-1.02-.34-1.82-1.02-2.41-.68-.58-1.53-.87-2.55-.87s-1.86.28-2.51.83c-.65.55-1.08,1.37-1.28,2.45h7.36Z"/>
  <path class="cls-1" d="m290.75,70.11c1.33-.79,2.77-1.19,4.3-1.19v8.9h-2.34c-1.82,0-3.17.36-4.04,1.06-.88.71-1.32,1.94-1.32,3.7v10.43h-8.34v-23.88h8.34v4.21c.94-1.36,2.07-2.44,3.41-3.24Z"/>
  <path class="cls-1" d="m301.59,92.23c-1.69-.72-3.02-1.72-4-2.98-.98-1.26-1.53-2.69-1.64-4.28h8.09c.11.77.47,1.36,1.06,1.79.6.43,1.33.64,2.21.64.68,0,1.22-.14,1.62-.43.4-.28.6-.65.6-1.11,0-.6-.33-1.04-.98-1.32-.65-.28-1.73-.6-3.24-.94-1.7-.34-3.12-.72-4.26-1.15-1.14-.43-2.12-1.12-2.96-2.09-.84-.96-1.26-2.27-1.26-3.92,0-1.42.38-2.7,1.15-3.85s1.89-2.06,3.38-2.75c1.49-.68,3.28-1.02,5.39-1.02,3.12,0,5.58.77,7.37,2.3,1.79,1.53,2.82,3.55,3.11,6.05h-7.54c-.14-.77-.48-1.35-1-1.77-.53-.41-1.23-.62-2.11-.62-.68,0-1.2.13-1.55.38-.36.26-.53.61-.53,1.06,0,.57.33,1,.98,1.3.65.3,1.7.6,3.15.92,1.73.37,3.17.78,4.32,1.23,1.15.45,2.16,1.19,3.02,2.19.87,1.01,1.3,2.38,1.3,4.11,0,1.39-.4,2.64-1.21,3.75-.81,1.11-1.96,1.98-3.45,2.62s-3.24.96-5.26.96c-2.16,0-4.08-.36-5.77-1.09Z"/>
  <path class="cls-1" d="m321.17,65.7c-.89-.81-1.34-1.82-1.34-3.04s.45-2.28,1.34-3.11c.89-.82,2.08-1.23,3.55-1.23s2.62.41,3.51,1.23c.89.82,1.34,1.86,1.34,3.11s-.45,2.24-1.34,3.04c-.89.81-2.06,1.21-3.51,1.21s-2.66-.4-3.55-1.21Zm7.68,3.43v23.88h-8.34v-23.88h8.34Z"/>
  <path class="cls-1" d="m346.86,85.9v7.11h-3.62c-6.1,0-9.15-3.02-9.15-9.07v-7.88h-2.94v-6.94h2.94v-5.79h8.39v5.79h4.34v6.94h-4.34v8c0,.65.15,1.12.45,1.4.3.28.8.43,1.51.43h2.43Z"/>
  <path class="cls-1" d="m376.41,69.13l-13.81,31.62h-9.07l4.36-8.76-9.79-22.86h9.28l5.02,13.54,4.85-13.54h9.15Z"/>
  <path class="cls-1" d="m389.71,91.82c-1.89-.99-3.37-2.41-4.45-4.26-1.08-1.84-1.62-4.02-1.62-6.51s.55-4.63,1.64-6.47c1.09-1.84,2.58-3.26,4.47-4.26,1.89-.99,4.02-1.49,6.41-1.49s4.52.5,6.41,1.49c1.89.99,3.38,2.41,4.47,4.26,1.09,1.85,1.64,4,1.64,6.47s-.55,4.63-1.64,6.49c-1.09,1.86-2.59,3.29-4.49,4.28-1.9.99-4.04,1.49-6.43,1.49s-4.52-.5-6.41-1.49Zm9.32-7.05c.78-.87,1.17-2.11,1.17-3.73s-.39-2.85-1.17-3.7c-.78-.85-1.74-1.28-2.87-1.28s-2.09.43-2.85,1.28c-.77.85-1.15,2.09-1.15,3.7s.37,2.89,1.11,3.75c.74.85,1.69,1.28,2.85,1.28s2.14-.43,2.92-1.3Z"/>
  <path class="cls-1" d="m424.13,76.07h-3.75v16.94h-8.39v-16.94h-2.6v-6.94h2.6v-.21c0-3.07.9-5.41,2.7-7.05,1.8-1.63,4.39-2.45,7.77-2.45.68,0,1.21.01,1.58.04v7.11c-.23-.03-.54-.04-.94-.04-.91,0-1.58.21-2,.62-.43.41-.67,1.07-.72,1.98h3.75v6.94Z"/>
  <path class="cls-1" d="m184.58,132.18h-8.34l-11.11-16.77v16.77h-8.34v-30.01h8.34l11.11,16.99v-16.99h8.34v30.01Z"/>
  <path class="cls-1" d="m189.15,104.87c-.89-.81-1.34-1.82-1.34-3.04s.45-2.28,1.34-3.11c.89-.82,2.08-1.23,3.55-1.23s2.62.41,3.51,1.23c.89.82,1.34,1.86,1.34,3.11s-.45,2.24-1.34,3.04c-.89.81-2.06,1.21-3.51,1.21s-2.66-.4-3.55-1.21Zm7.68,3.43v23.88h-8.34v-23.88h8.34Z"/>
  <path class="cls-1" d="m200.73,113.75c.89-1.84,2.11-3.26,3.66-4.26,1.55-.99,3.27-1.49,5.17-1.49,1.65,0,3.07.33,4.26.98,1.19.65,2.11,1.53,2.77,2.64v-3.32h8.34v23.88h-8.34v-3.32c-.65,1.11-1.58,1.99-2.79,2.64-1.21.65-2.62.98-4.24.98-1.9,0-3.63-.5-5.17-1.49-1.55-.99-2.77-2.42-3.66-4.28-.89-1.86-1.34-4.02-1.34-6.49s.45-4.63,1.34-6.47Zm14.6,2.85c-.84-.88-1.87-1.32-3.09-1.32s-2.28.43-3.11,1.3c-.82.87-1.23,2.08-1.23,3.64s.41,2.75,1.23,3.64c.82.89,1.86,1.34,3.11,1.34s2.25-.44,3.09-1.32c.84-.88,1.26-2.1,1.26-3.66s-.42-2.74-1.26-3.62Z"/>
  <path class="cls-1" d="m241.9,108.98c1.21.65,2.14,1.53,2.79,2.64v-3.32h8.34v23.63c0,2.24-.43,4.26-1.28,6.07-.85,1.8-2.18,3.24-3.98,4.32-1.8,1.08-4.08,1.62-6.83,1.62-3.69,0-6.64-.87-8.86-2.6-2.21-1.73-3.48-4.09-3.79-7.07h8.22c.17.77.6,1.36,1.28,1.79.68.43,1.56.64,2.64.64,2.84,0,4.26-1.59,4.26-4.77v-3.07c-.65,1.11-1.58,1.99-2.79,2.64-1.21.65-2.62.98-4.24.98-1.9,0-3.63-.5-5.17-1.49-1.55-.99-2.77-2.42-3.66-4.28-.89-1.86-1.34-4.02-1.34-6.49s.45-4.63,1.34-6.47c.89-1.84,2.11-3.26,3.66-4.26,1.55-.99,3.27-1.49,5.17-1.49,1.62,0,3.03.33,4.24.98Zm1.53,7.62c-.84-.88-1.87-1.32-3.09-1.32s-2.28.43-3.11,1.3c-.82.87-1.23,2.08-1.23,3.64s.41,2.75,1.23,3.64c.82.89,1.86,1.34,3.11,1.34s2.25-.44,3.09-1.32c.84-.88,1.26-2.1,1.26-3.66s-.42-2.74-1.26-3.62Z"/>
  <path class="cls-1" d="m256.93,113.75c.89-1.84,2.11-3.26,3.66-4.26,1.55-.99,3.27-1.49,5.17-1.49,1.65,0,3.07.33,4.26.98,1.19.65,2.11,1.53,2.77,2.64v-3.32h8.34v23.88h-8.34v-3.32c-.65,1.11-1.58,1.99-2.79,2.64-1.21.65-2.62.98-4.24.98-1.9,0-3.63-.5-5.17-1.49-1.55-.99-2.77-2.42-3.66-4.28-.89-1.86-1.34-4.02-1.34-6.49s.45-4.63,1.34-6.47Zm14.6,2.85c-.84-.88-1.87-1.32-3.09-1.32s-2.28.43-3.11,1.3c-.82.87-1.23,2.08-1.23,3.64s.41,2.75,1.23,3.64c.82.89,1.86,1.34,3.11,1.34s2.25-.44,3.09-1.32c.84-.88,1.26-2.1,1.26-3.66s-.42-2.74-1.26-3.62Z"/>
  <path class="cls-1" d="m296.8,109.28c1.33-.79,2.77-1.19,4.3-1.19v8.9h-2.34c-1.82,0-3.17.36-4.04,1.06-.88.71-1.32,1.94-1.32,3.7v10.43h-8.34v-23.88h8.34v4.21c.94-1.36,2.07-2.44,3.41-3.24Z"/>
  <path class="cls-1" d="m304.06,113.75c.89-1.84,2.11-3.26,3.66-4.26,1.55-.99,3.27-1.49,5.17-1.49,1.65,0,3.07.33,4.26.98,1.19.65,2.11,1.53,2.77,2.64v-3.32h8.34v23.88h-8.34v-3.32c-.65,1.11-1.58,1.99-2.79,2.64-1.21.65-2.62.98-4.24.98-1.9,0-3.63-.5-5.17-1.49-1.55-.99-2.77-2.42-3.66-4.28-.89-1.86-1.34-4.02-1.34-6.49s.45-4.63,1.34-6.47Zm14.6,2.85c-.84-.88-1.87-1.32-3.09-1.32s-2.28.43-3.11,1.3c-.82.87-1.23,2.08-1.23,3.64s.41,2.75,1.23,3.64c.82.89,1.86,1.34,3.11,1.34s2.25-.44,3.09-1.32c.84-.88,1.26-2.1,1.26-3.66s-.42-2.74-1.26-3.62Z"/>
  <path class="cls-1" d="m359.81,102.17v6.64h-12.01v5.28h8.86v6.34h-8.86v11.75h-8.34v-30.01h20.35Z"/>
  <path class="cls-1" d="m361.61,113.75c.89-1.84,2.11-3.26,3.66-4.26,1.55-.99,3.27-1.49,5.17-1.49,1.65,0,3.07.33,4.26.98,1.19.65,2.11,1.53,2.77,2.64v-3.32h8.34v23.88h-8.34v-3.32c-.65,1.11-1.58,1.99-2.79,2.64-1.21.65-2.62.98-4.24.98-1.9,0-3.63-.5-5.17-1.49-1.55-.99-2.77-2.42-3.66-4.28-.89-1.86-1.34-4.02-1.34-6.49s.45-4.63,1.34-6.47Zm14.6,2.85c-.84-.88-1.87-1.32-3.09-1.32s-2.28.43-3.11,1.3c-.82.87-1.23,2.08-1.23,3.64s.41,2.75,1.23,3.64c.82.89,1.86,1.34,3.11,1.34s2.25-.44,3.09-1.32c.84-.88,1.26-2.1,1.26-3.66s-.42-2.74-1.26-3.62Z"/>
  <path class="cls-1" d="m398.08,100.68v31.5h-8.34v-31.5h8.34Z"/>
  <path class="cls-1" d="m410.34,100.68v31.5h-8.34v-31.5h8.34Z"/>
  <path class="cls-1" d="m418.66,131.39c-1.69-.72-3.02-1.72-4-2.98-.98-1.26-1.53-2.69-1.64-4.28h8.09c.11.77.47,1.36,1.06,1.79.6.43,1.33.64,2.21.64.68,0,1.22-.14,1.62-.43.4-.28.6-.65.6-1.11,0-.6-.33-1.04-.98-1.32-.65-.28-1.73-.6-3.24-.94-1.7-.34-3.12-.72-4.26-1.15-1.14-.43-2.12-1.12-2.96-2.09-.84-.96-1.26-2.27-1.26-3.92,0-1.42.38-2.7,1.15-3.85s1.89-2.06,3.38-2.75c1.49-.68,3.28-1.02,5.39-1.02,3.12,0,5.58.77,7.37,2.3,1.79,1.53,2.82,3.55,3.11,6.05h-7.54c-.14-.77-.48-1.35-1-1.77-.53-.41-1.23-.62-2.11-.62-.68,0-1.2.13-1.55.38-.36.26-.53.61-.53,1.06,0,.57.33,1,.98,1.3.65.3,1.7.6,3.15.92,1.73.37,3.17.78,4.32,1.23,1.15.45,2.16,1.19,3.02,2.19.87,1.01,1.3,2.38,1.3,4.11,0,1.39-.4,2.64-1.21,3.75-.81,1.11-1.96,1.98-3.45,2.62s-3.24.96-5.26.96c-2.16,0-4.08-.36-5.77-1.09Z"/>
  <path class="cls-2" d="m157.61,148.38c1.23-2.31,2.99-4.11,5.26-5.41,2.27-1.29,4.88-1.94,7.83-1.94,3.75,0,6.9,1,9.45,3,2.55,2,4.2,4.72,4.94,8.15h-8.98c-.54-1.13-1.28-2-2.24-2.6-.95-.6-2.05-.89-3.3-.89-1.93,0-3.47.69-4.62,2.07-1.15,1.38-1.72,3.21-1.72,5.51s.57,4.18,1.72,5.56c1.15,1.38,2.69,2.06,4.62,2.06,1.25,0,2.35-.3,3.3-.89.95-.6,1.7-1.46,2.24-2.6h8.98c-.74,3.43-2.38,6.15-4.94,8.15-2.55,2-5.7,3-9.45,3-2.95,0-5.56-.65-7.83-1.94-2.27-1.29-4.02-3.09-5.26-5.41-1.23-2.31-1.85-4.96-1.85-7.94s.62-5.58,1.85-7.9Z"/>
  <path class="cls-2" d="m188.17,152.91c.89-1.84,2.11-3.26,3.66-4.26,1.55-.99,3.27-1.49,5.17-1.49,1.65,0,3.07.33,4.26.98,1.19.65,2.11,1.53,2.77,2.64v-3.32h8.34v23.88h-8.34v-3.32c-.65,1.11-1.58,1.99-2.79,2.64-1.21.65-2.62.98-4.24.98-1.9,0-3.63-.5-5.17-1.49-1.55-.99-2.77-2.42-3.66-4.28-.89-1.86-1.34-4.02-1.34-6.49s.45-4.63,1.34-6.47Zm14.6,2.85c-.84-.88-1.87-1.32-3.09-1.32s-2.28.43-3.11,1.3c-.82.87-1.23,2.08-1.23,3.64s.41,2.75,1.23,3.64c.82.89,1.86,1.34,3.11,1.34s2.25-.44,3.09-1.32c.84-.88,1.26-2.1,1.26-3.66s-.42-2.74-1.26-3.62Z"/>
  <path class="cls-2" d="m238.47,150c1.62,1.83,2.43,4.31,2.43,7.43v13.92h-8.34v-12.81c0-1.36-.36-2.43-1.06-3.21-.71-.78-1.66-1.17-2.85-1.17s-2.23.39-2.94,1.17c-.71.78-1.06,1.85-1.06,3.21v12.81h-8.34v-23.88h8.34v3.41c.74-1.08,1.73-1.95,2.98-2.62,1.25-.67,2.68-1,4.3-1,2.75,0,4.94.92,6.56,2.75Z"/>
  <path class="cls-2" d="m244.63,152.91c.89-1.84,2.11-3.26,3.66-4.26,1.55-.99,3.27-1.49,5.17-1.49,1.65,0,3.07.33,4.26.98,1.19.65,2.11,1.53,2.77,2.64v-3.32h8.34v23.88h-8.34v-3.32c-.65,1.11-1.58,1.99-2.79,2.64-1.21.65-2.62.98-4.24.98-1.9,0-3.63-.5-5.17-1.49-1.55-.99-2.77-2.42-3.66-4.28-.89-1.86-1.34-4.02-1.34-6.49s.45-4.63,1.34-6.47Zm14.6,2.85c-.84-.88-1.87-1.32-3.09-1.32s-2.28.43-3.11,1.3c-.82.87-1.23,2.08-1.23,3.64s.41,2.75,1.23,3.64c.82.89,1.86,1.34,3.11,1.34s2.25-.44,3.09-1.32c.84-.88,1.26-2.1,1.26-3.66s-.42-2.74-1.26-3.62Z"/>
  <path class="cls-2" d="m272.72,152.91c.89-1.84,2.12-3.26,3.68-4.26,1.56-.99,3.29-1.49,5.19-1.49,1.53,0,2.9.32,4.11.96,1.21.64,2.15,1.51,2.83,2.62v-10.9h8.39v31.5h-8.39v-3.32c-.65,1.11-1.58,1.99-2.77,2.64-1.19.65-2.6.98-4.21.98-1.9,0-3.63-.5-5.17-1.49-1.55-.99-2.77-2.42-3.66-4.28-.89-1.86-1.34-4.02-1.34-6.49s.45-4.63,1.34-6.47Zm14.6,2.85c-.84-.88-1.87-1.32-3.09-1.32s-2.28.43-3.11,1.3c-.82.87-1.23,2.08-1.23,3.64s.41,2.75,1.23,3.64c.82.89,1.86,1.34,3.11,1.34s2.25-.44,3.09-1.32c.84-.88,1.26-2.1,1.26-3.66s-.42-2.74-1.26-3.62Z"/>
  <path class="cls-2" d="m300.82,152.91c.89-1.84,2.11-3.26,3.66-4.26,1.55-.99,3.27-1.49,5.17-1.49,1.65,0,3.07.33,4.26.98,1.19.65,2.11,1.53,2.77,2.64v-3.32h8.34v23.88h-8.34v-3.32c-.65,1.11-1.58,1.99-2.79,2.64-1.21.65-2.62.98-4.24.98-1.9,0-3.63-.5-5.17-1.49-1.55-.99-2.77-2.42-3.66-4.28-.89-1.86-1.34-4.02-1.34-6.49s.45-4.63,1.34-6.47Zm14.6,2.85c-.84-.88-1.87-1.32-3.09-1.32s-2.28.43-3.11,1.3c-.82.87-1.23,2.08-1.23,3.64s.41,2.75,1.23,3.64c.82.89,1.86,1.34,3.11,1.34s2.25-.44,3.09-1.32c.84-.88,1.26-2.1,1.26-3.66s-.42-2.74-1.26-3.62Z"/>
  <g>
    <path class="cls-2" d="m119.65,153.05c-25.64-1.86-45.94-23.31-45.94-49.42v-49.73h-11.63v55.4c0,24.91,20.19,45.1,45.1,45.1h2.32c3.73,0,7.35-.46,10.81-1.32l-.67-.04Z"/>
    <path class="cls-3" d="m91.04,163.28h2.32c7.08,0,19.75-4.57,19.75-4.57,0,0-2.4.15-3.61.15h-2.32c-27.33,0-49.56-22.23-49.56-49.56v-55.4h-11.69v64.27c0,24.87,20.23,45.1,45.1,45.1Z"/>
    <path class="cls-1" d="m93.36,167.73h-2.32c-27.33,0-49.56-22.23-49.56-49.56V53.9h-11.59v74.82c0,26.03,21.3,47.33,47.33,47.33h2.32c.73,0,1.46-.02,2.18-.06.39-.02.79-.04,1.18-.07.21-.01.42-.03.63-.05,10.68-.85,28.13-11.67,28.13-11.67,0,0-11.84,3.52-18.3,3.52Z"/>
    <path class="cls-4" d="m78.16,53.9v49.73c0,24.87,20.23,45.1,45.1,45.1h.59c3.37-6.69,5.28-14.24,5.28-22.23V53.92h-4.45v72.58c0,6.55-1.41,12.77-3.94,18.39-18.03-6.7-30.97-24.09-30.97-44.38v-46.61h-11.62Z"/>
  </g>
</svg>